<mxfile host="Electron" agent="Mozilla/5.0 (Windows NT 10.0; Win64; x64) AppleWebKit/537.36 (KHTML, like Gecko) draw.io/26.0.16 Chrome/132.0.6834.196 Electron/34.2.0 Safari/537.36" version="26.0.16">
  <diagram name="Page-1" id="e7e014a7-5840-1c2e-5031-d8a46d1fe8dd">
    <mxGraphModel dx="974" dy="480" grid="1" gridSize="10" guides="1" tooltips="1" connect="1" arrows="1" fold="1" page="1" pageScale="1" pageWidth="1169" pageHeight="826" background="none" math="0" shadow="0">
      <root>
        <mxCell id="0" />
        <mxCell id="1" parent="0" />
        <mxCell id="KD5bHL5NGZbH28IwTcb_-41" value="Admin" style="swimlane;whiteSpace=wrap;fillColor=#FFFFFF;" parent="1" vertex="1">
          <mxGeometry x="170" y="80" width="320" height="700" as="geometry" />
        </mxCell>
        <mxCell id="KD5bHL5NGZbH28IwTcb_-42" value="" style="ellipse;shape=startState;fillColor=#000000;strokeColor=#ff0000;" parent="KD5bHL5NGZbH28IwTcb_-41" vertex="1">
          <mxGeometry x="135" y="42" width="30" height="30" as="geometry" />
        </mxCell>
        <mxCell id="KD5bHL5NGZbH28IwTcb_-43" value="" style="edgeStyle=elbowEdgeStyle;elbow=vertical;verticalAlign=bottom;endArrow=open;endSize=8;strokeColor=#FF0000;endFill=1;rounded=0;entryX=0.5;entryY=0;entryDx=0;entryDy=0;exitX=0.5;exitY=1;exitDx=0;exitDy=0;" parent="KD5bHL5NGZbH28IwTcb_-41" source="KD5bHL5NGZbH28IwTcb_-42" target="KD5bHL5NGZbH28IwTcb_-44" edge="1">
          <mxGeometry x="100" y="40" as="geometry">
            <mxPoint x="114.5" y="110" as="targetPoint" />
            <mxPoint x="115.5" y="72" as="sourcePoint" />
            <Array as="points">
              <mxPoint x="95" y="98" />
            </Array>
          </mxGeometry>
        </mxCell>
        <mxCell id="KD5bHL5NGZbH28IwTcb_-44" value="Chọn chức năng quản lý nhập kho" style="rounded=1;whiteSpace=wrap;html=1;" parent="KD5bHL5NGZbH28IwTcb_-41" vertex="1">
          <mxGeometry x="90" y="112" width="120" height="60" as="geometry" />
        </mxCell>
        <mxCell id="KD5bHL5NGZbH28IwTcb_-45" value="Yêu cầu đăng nhập" style="rounded=1;whiteSpace=wrap;html=1;" parent="KD5bHL5NGZbH28IwTcb_-41" vertex="1">
          <mxGeometry x="90" y="190" width="120" height="60" as="geometry" />
        </mxCell>
        <mxCell id="KD5bHL5NGZbH28IwTcb_-59" value="Nhập thông tin cần thiết của sản phầm cần nhập kho" style="rounded=1;whiteSpace=wrap;html=1;" parent="KD5bHL5NGZbH28IwTcb_-41" vertex="1">
          <mxGeometry x="90" y="290" width="120" height="60" as="geometry" />
        </mxCell>
        <mxCell id="wGlfglHbMw9s5EvdhsTP-2" value="Thông báo lỗi" style="rounded=1;whiteSpace=wrap;html=1;" parent="KD5bHL5NGZbH28IwTcb_-41" vertex="1">
          <mxGeometry x="90" y="384" width="120" height="60" as="geometry" />
        </mxCell>
        <mxCell id="lyvU9AnMyv63UgWdk_dj-11" value="" style="endArrow=classic;html=1;rounded=0;fontFamily=Helvetica;fontSize=12;fontColor=default;fontStyle=1;entryX=0.5;entryY=1;entryDx=0;entryDy=0;exitX=0.5;exitY=0;exitDx=0;exitDy=0;" edge="1" parent="KD5bHL5NGZbH28IwTcb_-41" source="wGlfglHbMw9s5EvdhsTP-2" target="KD5bHL5NGZbH28IwTcb_-59">
          <mxGeometry width="50" height="50" relative="1" as="geometry">
            <mxPoint x="70" y="430" as="sourcePoint" />
            <mxPoint x="120" y="380" as="targetPoint" />
          </mxGeometry>
        </mxCell>
        <mxCell id="KD5bHL5NGZbH28IwTcb_-69" value="System" style="swimlane;whiteSpace=wrap;startSize=23;" parent="1" vertex="1">
          <mxGeometry x="490" y="80" width="320" height="700" as="geometry" />
        </mxCell>
        <mxCell id="KD5bHL5NGZbH28IwTcb_-71" value="Kiểm tra đăng nhập" style="rounded=1;whiteSpace=wrap;html=1;" parent="KD5bHL5NGZbH28IwTcb_-69" vertex="1">
          <mxGeometry x="95" y="92" width="120" height="60" as="geometry" />
        </mxCell>
        <mxCell id="KD5bHL5NGZbH28IwTcb_-73" value="" style="endArrow=classic;html=1;rounded=0;dashed=1;entryX=0.91;entryY=-0.01;entryDx=0;entryDy=0;entryPerimeter=0;exitX=0.623;exitY=1.02;exitDx=0;exitDy=0;exitPerimeter=0;fillColor=#d80073;strokeColor=light-dark(#ff0000, #FFA9E0);" parent="KD5bHL5NGZbH28IwTcb_-69" source="KD5bHL5NGZbH28IwTcb_-74" target="KD5bHL5NGZbH28IwTcb_-71" edge="1">
          <mxGeometry width="50" height="50" relative="1" as="geometry">
            <mxPoint x="215" y="62" as="sourcePoint" />
            <mxPoint x="210" y="32" as="targetPoint" />
          </mxGeometry>
        </mxCell>
        <mxCell id="KD5bHL5NGZbH28IwTcb_-74" value="Tài khoản" style="rounded=0;whiteSpace=wrap;html=1;" parent="KD5bHL5NGZbH28IwTcb_-69" vertex="1">
          <mxGeometry x="175" y="32" width="70" height="30" as="geometry" />
        </mxCell>
        <mxCell id="KD5bHL5NGZbH28IwTcb_-76" value="Kiểm tra thông tin" style="rounded=1;whiteSpace=wrap;html=1;" parent="KD5bHL5NGZbH28IwTcb_-69" vertex="1">
          <mxGeometry x="100" y="290" width="120" height="60" as="geometry" />
        </mxCell>
        <mxCell id="KD5bHL5NGZbH28IwTcb_-78" value="Sản phẩm" style="rounded=0;whiteSpace=wrap;html=1;" parent="KD5bHL5NGZbH28IwTcb_-69" vertex="1">
          <mxGeometry x="230" y="250" width="70" height="30" as="geometry" />
        </mxCell>
        <mxCell id="KD5bHL5NGZbH28IwTcb_-60" value="Xác nhận thêm sản phẩm, số lượng sản phẩm vào kho" style="rounded=1;whiteSpace=wrap;html=1;" parent="KD5bHL5NGZbH28IwTcb_-69" vertex="1">
          <mxGeometry x="100" y="480" width="120" height="60" as="geometry" />
        </mxCell>
        <mxCell id="wGlfglHbMw9s5EvdhsTP-4" value="Thông báo thành công" style="rounded=1;whiteSpace=wrap;html=1;" parent="KD5bHL5NGZbH28IwTcb_-69" vertex="1">
          <mxGeometry x="100" y="570" width="120" height="60" as="geometry" />
        </mxCell>
        <mxCell id="KD5bHL5NGZbH28IwTcb_-67" value="" style="ellipse;html=1;shape=endState;fillColor=#000000;strokeColor=#ff0000;" parent="KD5bHL5NGZbH28IwTcb_-69" vertex="1">
          <mxGeometry x="145" y="660" width="30" height="30" as="geometry" />
        </mxCell>
        <mxCell id="wGlfglHbMw9s5EvdhsTP-7" value="Sản phẩm" style="rounded=0;whiteSpace=wrap;html=1;" parent="KD5bHL5NGZbH28IwTcb_-69" vertex="1">
          <mxGeometry x="230" y="430" width="70" height="30" as="geometry" />
        </mxCell>
        <mxCell id="lyvU9AnMyv63UgWdk_dj-3" value="" style="endArrow=classic;html=1;rounded=0;fontFamily=Helvetica;fontSize=12;fontColor=default;fontStyle=1;entryX=0.5;entryY=0;entryDx=0;entryDy=0;exitX=0.5;exitY=1;exitDx=0;exitDy=0;" edge="1" parent="KD5bHL5NGZbH28IwTcb_-69" source="KD5bHL5NGZbH28IwTcb_-71" target="lyvU9AnMyv63UgWdk_dj-4">
          <mxGeometry width="50" height="50" relative="1" as="geometry">
            <mxPoint x="40" y="220" as="sourcePoint" />
            <mxPoint x="155" y="212" as="targetPoint" />
          </mxGeometry>
        </mxCell>
        <mxCell id="lyvU9AnMyv63UgWdk_dj-4" value="" style="rhombus;whiteSpace=wrap;html=1;strokeColor=default;align=center;verticalAlign=middle;fontFamily=Helvetica;fontSize=12;fontColor=default;fontStyle=1;fillColor=#FFFFFF;" vertex="1" parent="KD5bHL5NGZbH28IwTcb_-69">
          <mxGeometry x="123.75" y="200" width="62.5" height="50" as="geometry" />
        </mxCell>
        <mxCell id="lyvU9AnMyv63UgWdk_dj-9" value="" style="html=1;labelBackgroundColor=#ffffff;startArrow=none;startFill=0;startSize=6;endArrow=classic;endFill=1;endSize=6;jettySize=auto;orthogonalLoop=1;strokeWidth=1;dashed=1;fontSize=14;rounded=0;fontFamily=Helvetica;fontColor=default;fontStyle=1;entryX=0.5;entryY=0;entryDx=0;entryDy=0;exitX=0;exitY=0.5;exitDx=0;exitDy=0;" edge="1" parent="KD5bHL5NGZbH28IwTcb_-69" source="KD5bHL5NGZbH28IwTcb_-78" target="KD5bHL5NGZbH28IwTcb_-76">
          <mxGeometry width="60" height="60" relative="1" as="geometry">
            <mxPoint x="250" y="380" as="sourcePoint" />
            <mxPoint x="310" y="320" as="targetPoint" />
          </mxGeometry>
        </mxCell>
        <mxCell id="lyvU9AnMyv63UgWdk_dj-13" value="Sai" style="text;html=1;align=center;verticalAlign=middle;resizable=0;points=[];autosize=1;strokeColor=none;fillColor=none;fontFamily=Helvetica;fontSize=12;fontColor=default;fontStyle=1;" vertex="1" parent="KD5bHL5NGZbH28IwTcb_-69">
          <mxGeometry x="83.75" y="380" width="40" height="30" as="geometry" />
        </mxCell>
        <mxCell id="lyvU9AnMyv63UgWdk_dj-14" value="" style="endArrow=classic;html=1;rounded=0;fontFamily=Helvetica;fontSize=12;fontColor=default;fontStyle=1;exitX=0.5;exitY=1;exitDx=0;exitDy=0;entryX=0.5;entryY=0;entryDx=0;entryDy=0;" edge="1" parent="KD5bHL5NGZbH28IwTcb_-69" source="KD5bHL5NGZbH28IwTcb_-76" target="lyvU9AnMyv63UgWdk_dj-15">
          <mxGeometry width="50" height="50" relative="1" as="geometry">
            <mxPoint x="240" y="410" as="sourcePoint" />
            <mxPoint x="200" y="370" as="targetPoint" />
          </mxGeometry>
        </mxCell>
        <mxCell id="lyvU9AnMyv63UgWdk_dj-15" value="" style="rhombus;whiteSpace=wrap;html=1;strokeColor=default;align=center;verticalAlign=middle;fontFamily=Helvetica;fontSize=12;fontColor=default;fontStyle=1;fillColor=#FFFFFF;" vertex="1" parent="KD5bHL5NGZbH28IwTcb_-69">
          <mxGeometry x="125" y="391" width="70" height="46" as="geometry" />
        </mxCell>
        <mxCell id="lyvU9AnMyv63UgWdk_dj-16" value="" style="html=1;labelBackgroundColor=#ffffff;startArrow=none;startFill=0;startSize=6;endArrow=classic;endFill=1;endSize=6;jettySize=auto;orthogonalLoop=1;strokeWidth=1;dashed=1;fontSize=14;rounded=0;fontFamily=Helvetica;fontColor=default;fontStyle=1;entryX=0;entryY=0.5;entryDx=0;entryDy=0;exitX=0.75;exitY=0;exitDx=0;exitDy=0;" edge="1" parent="KD5bHL5NGZbH28IwTcb_-69" source="KD5bHL5NGZbH28IwTcb_-60" target="wGlfglHbMw9s5EvdhsTP-7">
          <mxGeometry width="60" height="60" relative="1" as="geometry">
            <mxPoint x="230" y="470" as="sourcePoint" />
            <mxPoint x="220" y="525" as="targetPoint" />
          </mxGeometry>
        </mxCell>
        <mxCell id="lyvU9AnMyv63UgWdk_dj-17" value="" style="endArrow=classic;html=1;rounded=0;fontFamily=Helvetica;fontSize=12;fontColor=default;fontStyle=1;entryX=0.5;entryY=0;entryDx=0;entryDy=0;exitX=0.5;exitY=1;exitDx=0;exitDy=0;" edge="1" parent="KD5bHL5NGZbH28IwTcb_-69" source="lyvU9AnMyv63UgWdk_dj-15" target="KD5bHL5NGZbH28IwTcb_-60">
          <mxGeometry width="50" height="50" relative="1" as="geometry">
            <mxPoint x="50" y="510" as="sourcePoint" />
            <mxPoint x="100" y="460" as="targetPoint" />
          </mxGeometry>
        </mxCell>
        <mxCell id="lyvU9AnMyv63UgWdk_dj-19" value="" style="endArrow=classic;html=1;rounded=0;fontFamily=Helvetica;fontSize=12;fontColor=default;fontStyle=1;entryX=0.5;entryY=0;entryDx=0;entryDy=0;exitX=0.5;exitY=1;exitDx=0;exitDy=0;" edge="1" parent="KD5bHL5NGZbH28IwTcb_-69" source="KD5bHL5NGZbH28IwTcb_-60" target="wGlfglHbMw9s5EvdhsTP-4">
          <mxGeometry width="50" height="50" relative="1" as="geometry">
            <mxPoint x="-160" y="610" as="sourcePoint" />
            <mxPoint x="-110" y="560" as="targetPoint" />
          </mxGeometry>
        </mxCell>
        <mxCell id="lyvU9AnMyv63UgWdk_dj-20" value="" style="endArrow=classic;html=1;rounded=0;fontFamily=Helvetica;fontSize=12;fontColor=default;fontStyle=1;entryX=0.5;entryY=0;entryDx=0;entryDy=0;exitX=0.5;exitY=1;exitDx=0;exitDy=0;" edge="1" parent="KD5bHL5NGZbH28IwTcb_-69" source="wGlfglHbMw9s5EvdhsTP-4" target="KD5bHL5NGZbH28IwTcb_-67">
          <mxGeometry width="50" height="50" relative="1" as="geometry">
            <mxPoint x="230" y="680" as="sourcePoint" />
            <mxPoint x="280" y="630" as="targetPoint" />
          </mxGeometry>
        </mxCell>
        <mxCell id="lyvU9AnMyv63UgWdk_dj-1" value="" style="endArrow=classic;html=1;rounded=0;fontFamily=Helvetica;fontSize=12;fontColor=default;fontStyle=1;exitX=1;exitY=0.5;exitDx=0;exitDy=0;entryX=0;entryY=0.5;entryDx=0;entryDy=0;" edge="1" parent="1" source="KD5bHL5NGZbH28IwTcb_-44" target="KD5bHL5NGZbH28IwTcb_-71">
          <mxGeometry width="50" height="50" relative="1" as="geometry">
            <mxPoint x="410" y="230" as="sourcePoint" />
            <mxPoint x="460" y="180" as="targetPoint" />
          </mxGeometry>
        </mxCell>
        <mxCell id="lyvU9AnMyv63UgWdk_dj-2" value="" style="endArrow=classic;html=1;rounded=0;fontFamily=Helvetica;fontSize=12;fontColor=default;fontStyle=1;exitX=1;exitY=0.5;exitDx=0;exitDy=0;entryX=0;entryY=0.5;entryDx=0;entryDy=0;" edge="1" parent="1" source="KD5bHL5NGZbH28IwTcb_-45" target="KD5bHL5NGZbH28IwTcb_-71">
          <mxGeometry width="50" height="50" relative="1" as="geometry">
            <mxPoint x="410" y="300" as="sourcePoint" />
            <mxPoint x="460" y="250" as="targetPoint" />
          </mxGeometry>
        </mxCell>
        <mxCell id="lyvU9AnMyv63UgWdk_dj-5" value="" style="endArrow=classic;html=1;rounded=0;fontFamily=Helvetica;fontSize=12;fontColor=default;fontStyle=1;entryX=1;entryY=0.5;entryDx=0;entryDy=0;exitX=0;exitY=0.5;exitDx=0;exitDy=0;" edge="1" parent="1" source="lyvU9AnMyv63UgWdk_dj-4" target="KD5bHL5NGZbH28IwTcb_-45">
          <mxGeometry width="50" height="50" relative="1" as="geometry">
            <mxPoint x="410" y="370" as="sourcePoint" />
            <mxPoint x="460" y="320" as="targetPoint" />
          </mxGeometry>
        </mxCell>
        <mxCell id="lyvU9AnMyv63UgWdk_dj-6" value="" style="endArrow=classic;html=1;rounded=0;fontFamily=Helvetica;fontSize=12;fontColor=default;fontStyle=1;exitX=0.5;exitY=1;exitDx=0;exitDy=0;entryX=1;entryY=0.5;entryDx=0;entryDy=0;" edge="1" parent="1" source="lyvU9AnMyv63UgWdk_dj-4" target="KD5bHL5NGZbH28IwTcb_-59">
          <mxGeometry width="50" height="50" relative="1" as="geometry">
            <mxPoint x="410" y="370" as="sourcePoint" />
            <mxPoint x="460" y="320" as="targetPoint" />
          </mxGeometry>
        </mxCell>
        <mxCell id="lyvU9AnMyv63UgWdk_dj-7" value="Sai" style="text;html=1;align=center;verticalAlign=middle;resizable=0;points=[];autosize=1;strokeColor=none;fillColor=none;fontFamily=Helvetica;fontSize=12;fontColor=default;fontStyle=1;" vertex="1" parent="1">
          <mxGeometry x="580" y="278" width="40" height="30" as="geometry" />
        </mxCell>
        <mxCell id="lyvU9AnMyv63UgWdk_dj-8" value="Đúng" style="text;html=1;align=center;verticalAlign=middle;resizable=0;points=[];autosize=1;strokeColor=none;fillColor=none;fontFamily=Helvetica;fontSize=12;fontColor=default;fontStyle=1;" vertex="1" parent="1">
          <mxGeometry x="645" y="318" width="50" height="30" as="geometry" />
        </mxCell>
        <mxCell id="lyvU9AnMyv63UgWdk_dj-10" value="" style="endArrow=classic;html=1;rounded=0;fontFamily=Helvetica;fontSize=12;fontColor=default;fontStyle=1;entryX=0;entryY=0.5;entryDx=0;entryDy=0;exitX=1.014;exitY=0.63;exitDx=0;exitDy=0;exitPerimeter=0;" edge="1" parent="1" source="KD5bHL5NGZbH28IwTcb_-59" target="KD5bHL5NGZbH28IwTcb_-76">
          <mxGeometry width="50" height="50" relative="1" as="geometry">
            <mxPoint x="380" y="450" as="sourcePoint" />
            <mxPoint x="430" y="400" as="targetPoint" />
          </mxGeometry>
        </mxCell>
        <mxCell id="lyvU9AnMyv63UgWdk_dj-12" value="" style="endArrow=classic;html=1;rounded=0;fontFamily=Helvetica;fontSize=12;fontColor=default;fontStyle=1;entryX=1;entryY=0.5;entryDx=0;entryDy=0;exitX=0;exitY=0.5;exitDx=0;exitDy=0;" edge="1" parent="1" source="lyvU9AnMyv63UgWdk_dj-15" target="wGlfglHbMw9s5EvdhsTP-2">
          <mxGeometry width="50" height="50" relative="1" as="geometry">
            <mxPoint x="610" y="494" as="sourcePoint" />
            <mxPoint x="400" y="560" as="targetPoint" />
          </mxGeometry>
        </mxCell>
        <mxCell id="lyvU9AnMyv63UgWdk_dj-18" value="Đúng" style="text;html=1;align=center;verticalAlign=middle;resizable=0;points=[];autosize=1;strokeColor=none;fillColor=none;fontFamily=Helvetica;fontSize=12;fontColor=default;fontStyle=1;" vertex="1" parent="1">
          <mxGeometry x="645" y="508" width="50" height="30" as="geometry" />
        </mxCell>
      </root>
    </mxGraphModel>
  </diagram>
</mxfile>
